<?xml version="1.0" standalone="no"?><!DOCTYPE svg PUBLIC "-//W3C//DTD SVG 1.1//EN" "http://www.w3.org/Graphics/SVG/1.1/DTD/svg11.dtd"><svg x="131.5" y="246.7677" width="300" height="30.7323" viewBox="4 -31.6 399.84000000000003 40.96" style="box-sizing:border-box;height:auto;pointer-events:none;width:auto;perspective-origin:0px 0px;transform-origin:0px 0px;x:131.5px;y:246.768px;" version="1.1" xmlns="http://www.w3.org/2000/svg" xmlns:xlink="http://www.w3.org/1999/xlink"><g transform="matrix(1 0 0 1 0 0)" class="companyNamed8eabadb-8d40-46a4-91fd-5e0fa76cf827" style="box-sizing:border-box;height:auto;overflow-x:visible;overflow-y:visible;pointer-events:none;width:auto;perspective-origin:0px 0px;transform:matrix(1, 0, 0, 1, 0, 0);transform-origin:0px 0px;fill:rgb(75, 129, 231);"><path transform="" stroke="none" d="M4-29.16Q4-30.08 4.60-30.66Q5.20-31.24 6.08-31.24L6.08-31.24Q7-31.24 7.58-30.66Q8.16-30.08 8.16-29.16L8.16-29.16L8.16-2.08Q8.16-1.20 7.58-0.60Q7 0 6.08 0L6.08 0Q5.20 0 4.60-0.60Q4-1.20 4-2.08L4-2.08L4-29.16Z" style="box-sizing:border-box;height:auto;overflow-x:visible;overflow-y:visible;pointer-events:none;width:auto;perspective-origin:0px 0px;transform-origin:0px 0px;fill:rgb(75, 129, 231);d:path(&quot;M 4 -29.16 Q 4 -30.08 4.6 -30.66 Q 5.2 -31.24 6.08 -31.24 L 6.08 -31.24 Q 7 -31.24 7.58 -30.66 Q 8.16 -30.08 8.16 -29.16 L 8.16 -29.16 L 8.16 -2.08 Q 8.16 -1.2 7.58 -0.6 Q 7 0 6.08 0 L 6.08 0 Q 5.2 0 4.6 -0.6 Q 4 -1.2 4 -2.08 L 4 -2.08 L 4 -29.16 Z&quot;);"/>
    <path transform="" stroke="none" d="M26.64-22.08Q29.40-22.08 31.60-20.88Q33.80-19.68 35.04-17.38Q36.28-15.08 36.28-11.84L36.28-11.84L36.28-2Q36.28-1.12 35.70-0.54Q35.12 0.04 34.24 0.04L34.24 0.04Q33.36 0.04 32.78-0.54Q32.20-1.12 32.20-2L32.20-2L32.20-11.84Q32.20-15.08 30.46-16.74Q28.72-18.40 25.84-18.40L25.84-18.40Q24.16-18.40 22.78-17.72Q21.40-17.04 20.62-15.88Q19.84-14.72 19.84-13.28L19.84-13.28L19.84-2Q19.84-1.12 19.28-0.54Q18.72 0.04 17.80 0.04L17.80 0.04Q16.92 0.04 16.34-0.54Q15.76-1.12 15.76-2L15.76-2L15.76-19.84Q15.76-20.76 16.34-21.32Q16.92-21.88 17.80-21.88L17.80-21.88Q18.72-21.88 19.28-21.32Q19.84-20.76 19.84-19.84L19.84-19.84L19.84-19.40Q21.12-20.68 22.88-21.38Q24.64-22.08 26.64-22.08L26.64-22.08Z" style="box-sizing:border-box;height:auto;overflow-x:visible;overflow-y:visible;pointer-events:none;width:auto;perspective-origin:0px 0px;transform-origin:0px 0px;fill:rgb(75, 129, 231);d:path(&quot;M 26.64 -22.08 Q 29.4 -22.08 31.6 -20.88 Q 33.8 -19.68 35.04 -17.38 Q 36.28 -15.08 36.28 -11.84 L 36.28 -11.84 L 36.28 -2 Q 36.28 -1.12 35.7 -0.54 Q 35.12 0.04 34.24 0.04 L 34.24 0.04 Q 33.36 0.04 32.78 -0.54 Q 32.2 -1.12 32.2 -2 L 32.2 -2 L 32.2 -11.84 Q 32.2 -15.08 30.46 -16.74 Q 28.72 -18.4 25.84 -18.4 L 25.84 -18.4 Q 24.16 -18.4 22.78 -17.72 Q 21.4 -17.04 20.62 -15.88 Q 19.84 -14.72 19.84 -13.28 L 19.84 -13.28 L 19.84 -2 Q 19.84 -1.12 19.28 -0.54 Q 18.72 0.04 17.8 0.04 L 17.8 0.04 Q 16.92 0.04 16.34 -0.54 Q 15.76 -1.12 15.76 -2 L 15.76 -2 L 15.76 -19.84 Q 15.76 -20.76 16.34 -21.32 Q 16.92 -21.88 17.8 -21.88 L 17.8 -21.88 Q 18.72 -21.88 19.28 -21.32 Q 19.84 -20.76 19.84 -19.84 L 19.84 -19.84 L 19.84 -19.4 Q 21.12 -20.68 22.88 -21.38 Q 24.64 -22.08 26.64 -22.08 L 26.64 -22.08 Z&quot;);"/>
    <path transform="" stroke="none" d="M50.72-22.04Q53.32-22.04 55.38-21.20Q57.44-20.36 58.64-18.88L58.64-18.88Q59.16-18.24 59.16-17.60L59.16-17.60Q59.16-16.92 58.48-16.36L58.48-16.36Q58.04-16.04 57.36-16.04L57.36-16.04Q56.32-16.04 55.48-16.80L55.48-16.80Q54.48-17.72 53.36-18.10Q52.24-18.48 50.64-18.48L50.64-18.48Q48.80-18.48 47.62-17.86Q46.44-17.24 46.44-16.12L46.44-16.12Q46.44-15.32 46.84-14.78Q47.24-14.24 48.36-13.78Q49.48-13.32 51.60-12.88L51.60-12.88Q55.96-12 57.78-10.44Q59.60-8.88 59.60-6.40L59.60-6.40Q59.60-4.56 58.60-3.06Q57.60-1.56 55.66-0.70Q53.72 0.16 51 0.16L51 0.16Q48.28 0.16 45.88-0.68Q43.48-1.52 42.12-2.88L42.12-2.88Q41.60-3.40 41.60-4.12L41.60-4.12Q41.60-5.08 42.40-5.68L42.40-5.68Q43.16-6.24 43.80-6.24L43.80-6.24Q44.60-6.24 45.32-5.52L45.32-5.52Q46.08-4.68 47.60-4.06Q49.12-3.44 50.84-3.44L50.84-3.44Q53.12-3.44 54.38-4.20Q55.64-4.96 55.64-6.24L55.64-6.24Q55.64-7.48 54.40-8.30Q53.16-9.12 50.20-9.68L50.20-9.68Q42.52-11.16 42.52-16L42.52-16Q42.52-17.96 43.68-19.32Q44.84-20.68 46.72-21.36Q48.60-22.04 50.72-22.04L50.72-22.04Z" style="box-sizing:border-box;height:auto;overflow-x:visible;overflow-y:visible;pointer-events:none;width:auto;perspective-origin:0px 0px;transform-origin:0px 0px;fill:rgb(75, 129, 231);d:path(&quot;M 50.72 -22.04 Q 53.32 -22.04 55.38 -21.2 Q 57.44 -20.36 58.64 -18.88 L 58.64 -18.88 Q 59.16 -18.24 59.16 -17.6 L 59.16 -17.6 Q 59.16 -16.92 58.48 -16.36 L 58.48 -16.36 Q 58.04 -16.04 57.36 -16.04 L 57.36 -16.04 Q 56.32 -16.04 55.48 -16.8 L 55.48 -16.8 Q 54.48 -17.72 53.36 -18.1 Q 52.24 -18.48 50.64 -18.48 L 50.64 -18.48 Q 48.8 -18.48 47.62 -17.86 Q 46.44 -17.24 46.44 -16.12 L 46.44 -16.12 Q 46.44 -15.32 46.84 -14.78 Q 47.24 -14.24 48.36 -13.78 Q 49.48 -13.32 51.6 -12.88 L 51.6 -12.88 Q 55.96 -12 57.78 -10.44 Q 59.6 -8.88 59.6 -6.4 L 59.6 -6.4 Q 59.6 -4.56 58.6 -3.06 Q 57.6 -1.56 55.66 -0.7 Q 53.72 0.16 51 0.16 L 51 0.16 Q 48.28 0.16 45.88 -0.68 Q 43.48 -1.52 42.12 -2.88 L 42.12 -2.88 Q 41.6 -3.4 41.6 -4.12 L 41.6 -4.12 Q 41.6 -5.08 42.4 -5.68 L 42.4 -5.68 Q 43.16 -6.24 43.8 -6.24 L 43.8 -6.24 Q 44.6 -6.24 45.32 -5.52 L 45.32 -5.52 Q 46.08 -4.68 47.6 -4.06 Q 49.12 -3.44 50.84 -3.44 L 50.84 -3.44 Q 53.12 -3.44 54.38 -4.2 Q 55.64 -4.96 55.64 -6.24 L 55.64 -6.24 Q 55.64 -7.48 54.4 -8.3 Q 53.16 -9.12 50.2 -9.68 L 50.2 -9.68 Q 42.52 -11.16 42.52 -16 L 42.52 -16 Q 42.52 -17.96 43.68 -19.32 Q 44.84 -20.68 46.72 -21.36 Q 48.6 -22.04 50.72 -22.04 L 50.72 -22.04 Z&quot;);"/>
    <path transform="" stroke="none" d="M74.08-4Q74.80-4 75.30-3.44Q75.80-2.88 75.80-2L75.80-2Q75.80-1.12 75.14-0.56Q74.48 0 73.44 0L73.44 0L72.72 0Q70.76 0 69.14-1.02Q67.52-2.04 66.60-3.80Q65.68-5.56 65.68-7.76L65.68-7.76L65.68-17.64L63.84-17.64Q63-17.64 62.48-18.12Q61.96-18.60 61.96-19.32L61.96-19.32Q61.96-20.12 62.48-20.60Q63-21.08 63.84-21.08L63.84-21.08L65.68-21.08L65.68-26.84Q65.68-27.72 66.24-28.28Q66.80-28.84 67.68-28.84L67.68-28.84Q68.56-28.84 69.12-28.28Q69.68-27.72 69.68-26.84L69.68-26.84L69.68-21.08L73.08-21.08Q73.92-21.08 74.44-20.60Q74.96-20.12 74.96-19.32L74.96-19.32Q74.96-18.60 74.44-18.12Q73.92-17.64 73.08-17.64L73.08-17.64L69.68-17.64L69.68-7.76Q69.68-6.16 70.56-5.08Q71.44-4 72.72-4L72.72-4L74.08-4Z" style="box-sizing:border-box;height:auto;overflow-x:visible;overflow-y:visible;pointer-events:none;width:auto;perspective-origin:0px 0px;transform-origin:0px 0px;fill:rgb(75, 129, 231);d:path(&quot;M 74.08 -4 Q 74.8 -4 75.3 -3.44 Q 75.8 -2.88 75.8 -2 L 75.8 -2 Q 75.8 -1.12 75.14 -0.56 Q 74.48 0 73.44 0 L 73.44 0 L 72.72 0 Q 70.76 0 69.14 -1.02 Q 67.52 -2.04 66.6 -3.8 Q 65.68 -5.56 65.68 -7.76 L 65.68 -7.76 L 65.68 -17.64 L 63.84 -17.64 Q 63 -17.64 62.48 -18.12 Q 61.96 -18.6 61.96 -19.32 L 61.96 -19.32 Q 61.96 -20.12 62.48 -20.6 Q 63 -21.08 63.84 -21.08 L 63.84 -21.08 L 65.68 -21.08 L 65.68 -26.84 Q 65.68 -27.72 66.24 -28.28 Q 66.8 -28.84 67.68 -28.84 L 67.68 -28.84 Q 68.56 -28.84 69.12 -28.28 Q 69.68 -27.72 69.68 -26.84 L 69.68 -26.84 L 69.68 -21.08 L 73.08 -21.08 Q 73.92 -21.08 74.44 -20.6 Q 74.96 -20.12 74.96 -19.32 L 74.96 -19.32 Q 74.96 -18.6 74.44 -18.12 Q 73.92 -17.64 73.08 -17.64 L 73.08 -17.64 L 69.68 -17.64 L 69.68 -7.76 Q 69.68 -6.16 70.56 -5.08 Q 71.44 -4 72.72 -4 L 72.72 -4 L 74.08 -4 Z&quot;);"/>
    <path transform="" stroke="none" d="M90.72-22.04Q93.80-22.04 96.30-20.58Q98.80-19.12 100.26-16.58Q101.72-14.04 101.72-10.92L101.72-10.92L101.72-2Q101.72-1.12 101.14-0.54Q100.56 0.04 99.68 0.04L99.68 0.04Q98.80 0.04 98.22-0.54Q97.64-1.12 97.64-2L97.64-2L97.64-3.48Q96.24-1.76 94.24-0.80Q92.24 0.16 89.92 0.16L89.92 0.16Q87.04 0.16 84.70-1.28Q82.36-2.72 81.02-5.26Q79.68-7.80 79.68-10.92L79.68-10.92Q79.68-14.04 81.12-16.58Q82.56-19.12 85.10-20.58Q87.64-22.04 90.72-22.04L90.72-22.04ZM90.72-3.44Q92.72-3.44 94.34-4.42Q95.96-5.40 96.88-7.10Q97.80-8.80 97.80-10.92L97.80-10.92Q97.80-13.04 96.88-14.76Q95.96-16.48 94.34-17.46Q92.72-18.44 90.72-18.44L90.72-18.44Q88.72-18.44 87.10-17.46Q85.48-16.48 84.54-14.76Q83.60-13.04 83.60-10.92L83.60-10.92Q83.60-8.80 84.54-7.10Q85.48-5.40 87.10-4.42Q88.72-3.44 90.72-3.44L90.72-3.44Z" style="box-sizing:border-box;height:auto;overflow-x:visible;overflow-y:visible;pointer-events:none;width:auto;perspective-origin:0px 0px;transform-origin:0px 0px;fill:rgb(75, 129, 231);d:path(&quot;M 90.72 -22.04 Q 93.8 -22.04 96.3 -20.58 Q 98.8 -19.12 100.26 -16.58 Q 101.72 -14.04 101.72 -10.92 L 101.72 -10.92 L 101.72 -2 Q 101.72 -1.12 101.14 -0.54 Q 100.56 0.04 99.68 0.04 L 99.68 0.04 Q 98.8 0.04 98.22 -0.54 Q 97.64 -1.12 97.64 -2 L 97.64 -2 L 97.64 -3.48 Q 96.24 -1.76 94.24 -0.8 Q 92.24 0.16 89.92 0.16 L 89.92 0.16 Q 87.04 0.16 84.7 -1.28 Q 82.36 -2.72 81.02 -5.26 Q 79.68 -7.8 79.68 -10.92 L 79.68 -10.92 Q 79.68 -14.04 81.12 -16.58 Q 82.56 -19.12 85.1 -20.58 Q 87.64 -22.04 90.72 -22.04 L 90.72 -22.04 Z M 90.72 -3.44 Q 92.72 -3.44 94.34 -4.42 Q 95.96 -5.4 96.88 -7.1 Q 97.8 -8.8 97.8 -10.92 L 97.8 -10.92 Q 97.8 -13.04 96.88 -14.76 Q 95.96 -16.48 94.34 -17.46 Q 92.72 -18.44 90.72 -18.44 L 90.72 -18.44 Q 88.72 -18.44 87.1 -17.46 Q 85.48 -16.48 84.54 -14.76 Q 83.6 -13.04 83.6 -10.92 L 83.6 -10.92 Q 83.6 -8.8 84.54 -7.1 Q 85.48 -5.4 87.1 -4.42 Q 88.72 -3.44 90.72 -3.44 L 90.72 -3.44 Z&quot;);"/>
    <path transform="" stroke="none" d="" style="box-sizing:border-box;height:auto;overflow-x:visible;overflow-y:visible;pointer-events:none;width:auto;perspective-origin:0px 0px;transform-origin:0px 0px;fill:rgb(75, 129, 231);"/>
    <path transform="" stroke="none" d="M142.72-31.24Q143.60-31.24 144.10-30.76Q144.60-30.28 144.60-29.52L144.60-29.52Q144.60-29.04 144.36-28.48L144.36-28.48L132.52-1.32Q132 0 130.64 0L130.64 0Q129.36 0 128.76-1.32L128.76-1.32L117.04-28.12Q116.72-28.96 116.72-29.52L116.72-29.52Q116.72-30.32 117.22-30.78Q117.72-31.24 118.60-31.24L118.60-31.24Q120.00-31.24 120.52-30L120.52-30L130.60-5.84L140.84-30Q141.12-30.72 141.56-30.98Q142-31.24 142.72-31.24L142.72-31.24Z" style="box-sizing:border-box;height:auto;overflow-x:visible;overflow-y:visible;pointer-events:none;width:auto;perspective-origin:0px 0px;transform-origin:0px 0px;fill:rgb(75, 129, 231);d:path(&quot;M 142.72 -31.24 Q 143.6 -31.24 144.1 -30.76 Q 144.6 -30.28 144.6 -29.52 L 144.6 -29.52 Q 144.6 -29.04 144.36 -28.48 L 144.36 -28.48 L 132.52 -1.32 Q 132 0 130.64 0 L 130.64 0 Q 129.36 0 128.76 -1.32 L 128.76 -1.32 L 117.04 -28.12 Q 116.72 -28.96 116.72 -29.52 L 116.72 -29.52 Q 116.72 -30.32 117.22 -30.78 Q 117.72 -31.24 118.6 -31.24 L 118.6 -31.24 Q 120 -31.24 120.52 -30 L 120.52 -30 L 130.6 -5.84 L 140.84 -30 Q 141.12 -30.72 141.56 -30.98 Q 142 -31.24 142.72 -31.24 L 142.72 -31.24 Z&quot;);"/>
    <path transform="" stroke="none" d="M149.40-19.84Q149.40-20.76 149.98-21.32Q150.56-21.88 151.44-21.88L151.44-21.88Q152.36-21.88 152.92-21.32Q153.48-20.76 153.48-19.84L153.48-19.84L153.48-2.04Q153.48-1.16 152.92-0.58Q152.36 0 151.44 0L151.44 0Q150.56 0 149.98-0.58Q149.40-1.16 149.40-2.04L149.40-2.04L149.40-19.84ZM151.44-30.72Q152.52-30.72 153.30-29.94Q154.08-29.16 154.08-28.08L154.08-28.08Q154.08-27 153.30-26.22Q152.52-25.44 151.44-25.44L151.44-25.44Q150.36-25.44 149.58-26.22Q148.80-27 148.80-28.08L148.80-28.08Q148.80-29.16 149.58-29.94Q150.36-30.72 151.44-30.72L151.44-30.72Z" style="box-sizing:border-box;height:auto;overflow-x:visible;overflow-y:visible;pointer-events:none;width:auto;perspective-origin:0px 0px;transform-origin:0px 0px;fill:rgb(75, 129, 231);d:path(&quot;M 149.4 -19.84 Q 149.4 -20.76 149.98 -21.32 Q 150.56 -21.88 151.44 -21.88 L 151.44 -21.88 Q 152.36 -21.88 152.92 -21.32 Q 153.48 -20.76 153.48 -19.84 L 153.48 -19.84 L 153.48 -2.04 Q 153.48 -1.16 152.92 -0.58 Q 152.36 0 151.44 0 L 151.44 0 Q 150.56 0 149.98 -0.58 Q 149.4 -1.16 149.4 -2.04 L 149.4 -2.04 L 149.4 -19.84 Z M 151.44 -30.72 Q 152.52 -30.72 153.3 -29.94 Q 154.08 -29.16 154.08 -28.08 L 154.08 -28.08 Q 154.08 -27 153.3 -26.22 Q 152.52 -25.44 151.44 -25.44 L 151.44 -25.44 Q 150.36 -25.44 149.58 -26.22 Q 148.8 -27 148.8 -28.08 L 148.8 -28.08 Q 148.8 -29.16 149.58 -29.94 Q 150.36 -30.72 151.44 -30.72 L 151.44 -30.72 Z&quot;);"/>
    <path transform="" stroke="none" d="M179.96-31.24Q180.88-31.24 181.44-30.68Q182-30.12 182-29.20L182-29.20L182-10.96Q182-7.84 180.54-5.30Q179.08-2.76 176.58-1.30Q174.08 0.16 171 0.16L171 0.16Q167.92 0.16 165.38-1.30Q162.84-2.76 161.40-5.30Q159.96-7.84 159.96-10.96L159.96-10.96Q159.96-14.08 161.30-16.62Q162.64-19.16 164.98-20.60Q167.32-22.04 170.20-22.04L170.20-22.04Q172.52-22.04 174.52-21.08Q176.52-20.12 177.92-18.40L177.92-18.40L177.92-29.20Q177.92-30.12 178.50-30.68Q179.08-31.24 179.96-31.24L179.96-31.24ZM171-3.44Q173-3.44 174.62-4.42Q176.24-5.40 177.16-7.12Q178.08-8.84 178.08-10.96L178.08-10.96Q178.08-13.08 177.16-14.78Q176.24-16.48 174.62-17.46Q173-18.44 171-18.44L171-18.44Q169-18.44 167.38-17.46Q165.76-16.48 164.82-14.78Q163.88-13.08 163.88-10.96L163.88-10.96Q163.88-8.84 164.82-7.12Q165.76-5.40 167.38-4.42Q169-3.44 171-3.44L171-3.44Z" style="box-sizing:border-box;height:auto;overflow-x:visible;overflow-y:visible;pointer-events:none;width:auto;perspective-origin:0px 0px;transform-origin:0px 0px;fill:rgb(75, 129, 231);d:path(&quot;M 179.96 -31.24 Q 180.88 -31.24 181.44 -30.68 Q 182 -30.12 182 -29.2 L 182 -29.2 L 182 -10.96 Q 182 -7.84 180.54 -5.3 Q 179.08 -2.76 176.58 -1.3 Q 174.08 0.16 171 0.16 L 171 0.16 Q 167.92 0.16 165.38 -1.3 Q 162.84 -2.76 161.4 -5.3 Q 159.96 -7.84 159.96 -10.96 L 159.96 -10.96 Q 159.96 -14.08 161.3 -16.62 Q 162.64 -19.16 164.98 -20.6 Q 167.32 -22.04 170.2 -22.04 L 170.2 -22.04 Q 172.52 -22.04 174.52 -21.08 Q 176.52 -20.12 177.92 -18.4 L 177.92 -18.4 L 177.92 -29.2 Q 177.92 -30.12 178.5 -30.68 Q 179.08 -31.24 179.96 -31.24 L 179.96 -31.24 Z M 171 -3.44 Q 173 -3.44 174.62 -4.42 Q 176.24 -5.4 177.16 -7.12 Q 178.08 -8.84 178.08 -10.96 L 178.08 -10.96 Q 178.08 -13.08 177.16 -14.78 Q 176.24 -16.48 174.62 -17.46 Q 173 -18.44 171 -18.44 L 171 -18.44 Q 169 -18.44 167.38 -17.46 Q 165.76 -16.48 164.82 -14.78 Q 163.88 -13.08 163.88 -10.96 L 163.88 -10.96 Q 163.88 -8.84 164.82 -7.12 Q 165.76 -5.4 167.38 -4.42 Q 169 -3.44 171 -3.44 L 171 -3.44 Z&quot;);"/>
    <path transform="" stroke="none" d="M208.84-11.28Q208.84-10.52 208.32-10.02Q207.80-9.52 207-9.52L207-9.52L191.80-9.52Q192.24-6.72 194.34-5Q196.44-3.28 199.48-3.28L199.48-3.28Q200.68-3.28 201.98-3.72Q203.28-4.16 204.12-4.80L204.12-4.80Q204.68-5.24 205.44-5.24L205.44-5.24Q206.20-5.24 206.64-4.84L206.64-4.84Q207.36-4.24 207.36-3.48L207.36-3.48Q207.36-2.76 206.72-2.28L206.72-2.28Q205.36-1.20 203.34-0.52Q201.32 0.16 199.48 0.16L199.48 0.16Q196.20 0.16 193.60-1.26Q191-2.68 189.54-5.20Q188.08-7.72 188.08-10.92L188.08-10.92Q188.08-14.12 189.46-16.66Q190.84-19.20 193.30-20.62Q195.76-22.04 198.88-22.04L198.88-22.04Q201.96-22.04 204.20-20.68Q206.44-19.32 207.64-16.88Q208.84-14.44 208.84-11.28L208.84-11.28ZM198.88-18.60Q195.96-18.60 194.14-17Q192.32-15.40 191.84-12.72L191.84-12.72L205.16-12.72Q204.80-15.40 203.16-17Q201.52-18.60 198.88-18.60L198.88-18.60Z" style="box-sizing:border-box;height:auto;overflow-x:visible;overflow-y:visible;pointer-events:none;width:auto;perspective-origin:0px 0px;transform-origin:0px 0px;fill:rgb(75, 129, 231);d:path(&quot;M 208.84 -11.28 Q 208.84 -10.52 208.32 -10.02 Q 207.8 -9.52 207 -9.52 L 207 -9.52 L 191.8 -9.52 Q 192.24 -6.72 194.34 -5 Q 196.44 -3.28 199.48 -3.28 L 199.48 -3.28 Q 200.68 -3.28 201.98 -3.72 Q 203.28 -4.16 204.12 -4.8 L 204.12 -4.8 Q 204.68 -5.24 205.44 -5.24 L 205.44 -5.24 Q 206.2 -5.24 206.64 -4.84 L 206.64 -4.84 Q 207.36 -4.24 207.36 -3.48 L 207.36 -3.48 Q 207.36 -2.76 206.72 -2.28 L 206.72 -2.28 Q 205.36 -1.2 203.34 -0.52 Q 201.32 0.16 199.48 0.16 L 199.48 0.16 Q 196.2 0.16 193.6 -1.26 Q 191 -2.68 189.54 -5.2 Q 188.08 -7.72 188.08 -10.92 L 188.08 -10.92 Q 188.08 -14.12 189.46 -16.66 Q 190.84 -19.2 193.3 -20.62 Q 195.76 -22.04 198.88 -22.04 L 198.88 -22.04 Q 201.96 -22.04 204.2 -20.68 Q 206.44 -19.32 207.64 -16.88 Q 208.84 -14.44 208.84 -11.28 L 208.84 -11.28 Z M 198.88 -18.6 Q 195.96 -18.6 194.14 -17 Q 192.32 -15.4 191.84 -12.72 L 191.84 -12.72 L 205.16 -12.72 Q 204.8 -15.4 203.16 -17 Q 201.52 -18.6 198.88 -18.6 L 198.88 -18.6 Z&quot;);"/>
    <path transform="" stroke="none" d="M223.16-22.04Q226.32-22.04 228.82-20.62Q231.32-19.20 232.74-16.68Q234.16-14.16 234.16-10.92L234.16-10.92Q234.16-7.72 232.76-5.20Q231.36-2.68 228.86-1.26Q226.36 0.16 223.16 0.16L223.16 0.16Q219.96 0.16 217.44-1.26Q214.92-2.68 213.52-5.20Q212.12-7.72 212.12-10.92L212.12-10.92Q212.12-14.16 213.52-16.68Q214.92-19.20 217.44-20.62Q219.96-22.04 223.16-22.04L223.16-22.04ZM223.16-18.44Q221.12-18.44 219.50-17.48Q217.88-16.52 216.96-14.80Q216.04-13.08 216.04-10.92L216.04-10.92Q216.04-8.76 216.96-7.06Q217.88-5.36 219.50-4.40Q221.12-3.44 223.16-3.44L223.16-3.44Q225.20-3.44 226.82-4.40Q228.44-5.36 229.34-7.06Q230.24-8.76 230.24-10.92L230.24-10.92Q230.24-13.08 229.34-14.80Q228.44-16.52 226.82-17.48Q225.20-18.44 223.16-18.44L223.16-18.44Z" style="box-sizing:border-box;height:auto;overflow-x:visible;overflow-y:visible;pointer-events:none;width:auto;perspective-origin:0px 0px;transform-origin:0px 0px;fill:rgb(75, 129, 231);d:path(&quot;M 223.16 -22.04 Q 226.32 -22.04 228.82 -20.62 Q 231.32 -19.2 232.74 -16.68 Q 234.16 -14.16 234.16 -10.92 L 234.16 -10.92 Q 234.16 -7.72 232.76 -5.2 Q 231.36 -2.68 228.86 -1.26 Q 226.36 0.16 223.16 0.16 L 223.16 0.16 Q 219.96 0.16 217.44 -1.26 Q 214.92 -2.68 213.52 -5.2 Q 212.12 -7.72 212.12 -10.92 L 212.12 -10.92 Q 212.12 -14.16 213.52 -16.68 Q 214.92 -19.2 217.44 -20.62 Q 219.96 -22.04 223.16 -22.04 L 223.16 -22.04 Z M 223.16 -18.44 Q 221.12 -18.44 219.5 -17.48 Q 217.88 -16.52 216.96 -14.8 Q 216.04 -13.08 216.04 -10.92 L 216.04 -10.92 Q 216.04 -8.76 216.96 -7.06 Q 217.88 -5.36 219.5 -4.4 Q 221.12 -3.44 223.16 -3.44 L 223.16 -3.44 Q 225.2 -3.44 226.82 -4.4 Q 228.44 -5.36 229.34 -7.06 Q 230.24 -8.76 230.24 -10.92 L 230.24 -10.92 Q 230.24 -13.08 229.34 -14.8 Q 228.44 -16.52 226.82 -17.48 Q 225.2 -18.44 223.16 -18.44 L 223.16 -18.44 Z&quot;);"/>
    <path transform="" stroke="none" d="" style="box-sizing:border-box;height:auto;overflow-x:visible;overflow-y:visible;pointer-events:none;width:auto;perspective-origin:0px 0px;transform-origin:0px 0px;fill:rgb(75, 129, 231);"/>
    <path transform="" stroke="none" d="M262.84-31.60Q266.28-31.60 268.64-30.20Q271-28.80 272.64-26.20L272.64-26.20Q273.12-25.44 273.12-24.76L273.12-24.76Q273.12-23.88 272.32-23.32L272.32-23.32Q271.88-23.04 271.28-23.04L271.28-23.04Q270.68-23.04 270.16-23.34Q269.64-23.64 269.36-24.16L269.36-24.16Q268.28-25.96 266.66-26.90Q265.04-27.84 262.56-27.84L262.56-27.84Q259.52-27.84 257.64-26.66Q255.76-25.48 255.76-23.24L255.76-23.24Q255.76-21.16 257.44-19.76Q259.12-18.36 263.44-17.92L263.44-17.92Q268.24-17.44 270.88-15.02Q273.52-12.60 273.52-8.64L273.52-8.64Q273.52-5.76 271.96-3.70Q270.40-1.64 267.82-0.62Q265.24 0.40 262.28 0.40L262.28 0.40Q258.40 0.40 255.22-1.36Q252.04-3.12 250.84-5.96L250.84-5.96Q250.64-6.44 250.64-6.76L250.64-6.76Q250.64-7.36 251.08-7.82Q251.52-8.28 252.28-8.44L252.28-8.44Q252.40-8.48 252.68-8.48L252.68-8.48Q253.32-8.48 253.90-8.10Q254.48-7.72 254.76-7.08L254.76-7.08Q255.48-5.52 257.60-4.44Q259.72-3.36 262.28-3.36L262.28-3.36Q265.28-3.36 267.36-4.74Q269.44-6.12 269.44-8.52L269.44-8.52Q269.44-10.80 267.68-12.42Q265.92-14.04 262.32-14.40L262.32-14.40Q257.36-14.88 254.52-17.30Q251.68-19.72 251.68-23.36L251.68-23.36Q251.68-25.92 253.14-27.78Q254.60-29.64 257.14-30.62Q259.68-31.60 262.84-31.60L262.84-31.60Z" style="box-sizing:border-box;height:auto;overflow-x:visible;overflow-y:visible;pointer-events:none;width:auto;perspective-origin:0px 0px;transform-origin:0px 0px;fill:rgb(75, 129, 231);d:path(&quot;M 262.84 -31.6 Q 266.28 -31.6 268.64 -30.2 Q 271 -28.8 272.64 -26.2 L 272.64 -26.2 Q 273.12 -25.44 273.12 -24.76 L 273.12 -24.76 Q 273.12 -23.88 272.32 -23.32 L 272.32 -23.32 Q 271.88 -23.04 271.28 -23.04 L 271.28 -23.04 Q 270.68 -23.04 270.16 -23.34 Q 269.64 -23.64 269.36 -24.16 L 269.36 -24.16 Q 268.28 -25.96 266.66 -26.9 Q 265.04 -27.84 262.56 -27.84 L 262.56 -27.84 Q 259.52 -27.84 257.64 -26.66 Q 255.76 -25.48 255.76 -23.24 L 255.76 -23.24 Q 255.76 -21.16 257.44 -19.76 Q 259.12 -18.36 263.44 -17.92 L 263.44 -17.92 Q 268.24 -17.44 270.88 -15.02 Q 273.52 -12.6 273.52 -8.64 L 273.52 -8.64 Q 273.52 -5.76 271.96 -3.7 Q 270.4 -1.64 267.82 -0.62 Q 265.24 0.4 262.28 0.4 L 262.28 0.4 Q 258.4 0.4 255.22 -1.36 Q 252.04 -3.12 250.84 -5.96 L 250.84 -5.96 Q 250.64 -6.44 250.64 -6.76 L 250.64 -6.76 Q 250.64 -7.36 251.08 -7.82 Q 251.52 -8.28 252.28 -8.44 L 252.28 -8.44 Q 252.4 -8.48 252.68 -8.48 L 252.68 -8.48 Q 253.32 -8.48 253.9 -8.1 Q 254.48 -7.72 254.76 -7.08 L 254.76 -7.08 Q 255.48 -5.52 257.6 -4.44 Q 259.72 -3.36 262.28 -3.36 L 262.28 -3.36 Q 265.28 -3.36 267.36 -4.74 Q 269.44 -6.12 269.44 -8.52 L 269.44 -8.52 Q 269.44 -10.8 267.68 -12.42 Q 265.92 -14.04 262.32 -14.4 L 262.32 -14.4 Q 257.36 -14.88 254.52 -17.3 Q 251.68 -19.72 251.68 -23.36 L 251.68 -23.36 Q 251.68 -25.92 253.14 -27.78 Q 254.6 -29.64 257.14 -30.62 Q 259.68 -31.6 262.84 -31.6 L 262.84 -31.6 Z&quot;);"/>
    <path transform="" stroke="none" d="M290.48-22.04Q293.56-22.04 296.10-20.58Q298.64-19.12 300.08-16.58Q301.52-14.04 301.52-10.92L301.52-10.92Q301.52-7.80 300.18-5.26Q298.84-2.72 296.50-1.28Q294.16 0.16 291.28 0.16L291.28 0.16Q288.96 0.16 286.96-0.80Q284.96-1.76 283.56-3.48L283.56-3.48L283.56 7.32Q283.56 8.24 283 8.80Q282.44 9.36 281.52 9.36L281.52 9.36Q280.64 9.36 280.06 8.80Q279.48 8.24 279.48 7.32L279.48 7.32L279.48-10.92Q279.48-14.04 280.94-16.58Q282.40-19.12 284.90-20.58Q287.40-22.04 290.48-22.04L290.48-22.04ZM290.48-3.44Q292.48-3.44 294.10-4.42Q295.72-5.40 296.66-7.10Q297.60-8.80 297.60-10.92L297.60-10.92Q297.60-13.04 296.66-14.76Q295.72-16.48 294.10-17.46Q292.48-18.44 290.48-18.44L290.48-18.44Q288.48-18.44 286.86-17.46Q285.24-16.48 284.32-14.76Q283.40-13.04 283.40-10.92L283.40-10.92Q283.40-8.80 284.32-7.10Q285.24-5.40 286.86-4.42Q288.48-3.44 290.48-3.44L290.48-3.44Z" style="box-sizing:border-box;height:auto;overflow-x:visible;overflow-y:visible;pointer-events:none;width:auto;perspective-origin:0px 0px;transform-origin:0px 0px;fill:rgb(75, 129, 231);d:path(&quot;M 290.48 -22.04 Q 293.56 -22.04 296.1 -20.58 Q 298.64 -19.12 300.08 -16.58 Q 301.52 -14.04 301.52 -10.92 L 301.52 -10.92 Q 301.52 -7.8 300.18 -5.26 Q 298.84 -2.72 296.5 -1.28 Q 294.16 0.16 291.28 0.16 L 291.28 0.16 Q 288.96 0.16 286.96 -0.8 Q 284.96 -1.76 283.56 -3.48 L 283.56 -3.48 L 283.56 7.32 Q 283.56 8.24 283 8.8 Q 282.44 9.36 281.52 9.36 L 281.52 9.36 Q 280.64 9.36 280.06 8.8 Q 279.48 8.24 279.48 7.32 L 279.48 7.32 L 279.48 -10.92 Q 279.48 -14.04 280.94 -16.58 Q 282.4 -19.12 284.9 -20.58 Q 287.4 -22.04 290.48 -22.04 L 290.48 -22.04 Z M 290.48 -3.44 Q 292.48 -3.44 294.1 -4.42 Q 295.72 -5.4 296.66 -7.1 Q 297.6 -8.8 297.6 -10.92 L 297.6 -10.92 Q 297.6 -13.04 296.66 -14.76 Q 295.72 -16.48 294.1 -17.46 Q 292.48 -18.44 290.48 -18.44 L 290.48 -18.44 Q 288.48 -18.44 286.86 -17.46 Q 285.24 -16.48 284.32 -14.76 Q 283.4 -13.04 283.4 -10.92 L 283.4 -10.92 Q 283.4 -8.8 284.32 -7.1 Q 285.24 -5.4 286.86 -4.42 Q 288.48 -3.44 290.48 -3.44 L 290.48 -3.44 Z&quot;);"/>
    <path transform="" stroke="none" d="M306.80-29.24Q306.80-30.12 307.36-30.68Q307.92-31.24 308.80-31.24L308.80-31.24Q309.68-31.24 310.24-30.68Q310.80-30.12 310.80-29.24L310.80-29.24L310.80-7.40Q310.80-5.92 311.36-4.96Q311.92-4 312.80-4L312.80-4L313.80-4Q314.60-4 315.10-3.44Q315.60-2.88 315.60-2L315.60-2Q315.60-1.12 314.84-0.56Q314.08 0 312.88 0L312.88 0L312.80 0Q311.08 0 309.70-0.94Q308.32-1.88 307.56-3.58Q306.80-5.28 306.80-7.40L306.80-7.40L306.80-29.24Z" style="box-sizing:border-box;height:auto;overflow-x:visible;overflow-y:visible;pointer-events:none;width:auto;perspective-origin:0px 0px;transform-origin:0px 0px;fill:rgb(75, 129, 231);d:path(&quot;M 306.8 -29.24 Q 306.8 -30.12 307.36 -30.68 Q 307.92 -31.24 308.8 -31.24 L 308.8 -31.24 Q 309.68 -31.24 310.24 -30.68 Q 310.8 -30.12 310.8 -29.24 L 310.8 -29.24 L 310.8 -7.4 Q 310.8 -5.92 311.36 -4.96 Q 311.92 -4 312.8 -4 L 312.8 -4 L 313.8 -4 Q 314.6 -4 315.1 -3.44 Q 315.6 -2.88 315.6 -2 L 315.6 -2 Q 315.6 -1.12 314.84 -0.56 Q 314.08 0 312.88 0 L 312.88 0 L 312.8 0 Q 311.08 0 309.7 -0.94 Q 308.32 -1.88 307.56 -3.58 Q 306.8 -5.28 306.8 -7.4 L 306.8 -7.4 L 306.8 -29.24 Z&quot;);"/>
    <path transform="" stroke="none" d="M320-19.84Q320-20.76 320.58-21.32Q321.16-21.88 322.04-21.88L322.04-21.88Q322.96-21.88 323.52-21.32Q324.08-20.76 324.08-19.84L324.08-19.84L324.08-2.04Q324.08-1.16 323.52-0.58Q322.96 0 322.04 0L322.04 0Q321.16 0 320.58-0.58Q320-1.16 320-2.04L320-2.04L320-19.84ZM322.04-30.72Q323.12-30.72 323.90-29.94Q324.68-29.16 324.68-28.08L324.68-28.08Q324.68-27 323.90-26.22Q323.12-25.44 322.04-25.44L322.04-25.44Q320.96-25.44 320.18-26.22Q319.40-27 319.40-28.08L319.40-28.08Q319.40-29.16 320.18-29.94Q320.96-30.72 322.04-30.72L322.04-30.72Z" style="box-sizing:border-box;height:auto;overflow-x:visible;overflow-y:visible;pointer-events:none;width:auto;perspective-origin:0px 0px;transform-origin:0px 0px;fill:rgb(75, 129, 231);d:path(&quot;M 320 -19.84 Q 320 -20.76 320.58 -21.32 Q 321.16 -21.88 322.04 -21.88 L 322.04 -21.88 Q 322.96 -21.88 323.52 -21.32 Q 324.08 -20.76 324.08 -19.84 L 324.08 -19.84 L 324.08 -2.04 Q 324.08 -1.16 323.52 -0.58 Q 322.96 0 322.04 0 L 322.04 0 Q 321.16 0 320.58 -0.58 Q 320 -1.16 320 -2.04 L 320 -2.04 L 320 -19.84 Z M 322.04 -30.72 Q 323.12 -30.72 323.9 -29.94 Q 324.68 -29.16 324.68 -28.08 L 324.68 -28.08 Q 324.68 -27 323.9 -26.22 Q 323.12 -25.44 322.04 -25.44 L 322.04 -25.44 Q 320.96 -25.44 320.18 -26.22 Q 319.4 -27 319.4 -28.08 L 319.4 -28.08 Q 319.4 -29.16 320.18 -29.94 Q 320.96 -30.72 322.04 -30.72 L 322.04 -30.72 Z&quot;);"/>
    <path transform="" stroke="none" d="M341-4Q341.72-4 342.22-3.44Q342.72-2.88 342.72-2L342.72-2Q342.72-1.12 342.06-0.56Q341.40 0 340.36 0L340.36 0L339.64 0Q337.68 0 336.06-1.02Q334.44-2.04 333.52-3.80Q332.60-5.56 332.60-7.76L332.60-7.76L332.60-17.64L330.76-17.64Q329.92-17.64 329.40-18.12Q328.88-18.60 328.88-19.32L328.88-19.32Q328.88-20.12 329.40-20.60Q329.92-21.08 330.76-21.08L330.76-21.08L332.60-21.08L332.60-26.84Q332.60-27.72 333.16-28.28Q333.72-28.84 334.60-28.84L334.60-28.84Q335.48-28.84 336.04-28.28Q336.60-27.72 336.60-26.84L336.60-26.84L336.60-21.08L340-21.08Q340.84-21.08 341.36-20.60Q341.88-20.12 341.88-19.32L341.88-19.32Q341.88-18.60 341.36-18.12Q340.84-17.64 340-17.64L340-17.64L336.60-17.64L336.60-7.76Q336.60-6.16 337.48-5.08Q338.36-4 339.64-4L339.64-4L341-4Z" style="box-sizing:border-box;height:auto;overflow-x:visible;overflow-y:visible;pointer-events:none;width:auto;perspective-origin:0px 0px;transform-origin:0px 0px;fill:rgb(75, 129, 231);d:path(&quot;M 341 -4 Q 341.72 -4 342.22 -3.44 Q 342.72 -2.88 342.72 -2 L 342.72 -2 Q 342.72 -1.12 342.06 -0.56 Q 341.4 0 340.36 0 L 340.36 0 L 339.64 0 Q 337.68 0 336.06 -1.02 Q 334.44 -2.04 333.52 -3.8 Q 332.6 -5.56 332.6 -7.76 L 332.6 -7.76 L 332.6 -17.64 L 330.76 -17.64 Q 329.92 -17.64 329.4 -18.12 Q 328.88 -18.6 328.88 -19.32 L 328.88 -19.32 Q 328.88 -20.12 329.4 -20.6 Q 329.92 -21.08 330.76 -21.08 L 330.76 -21.08 L 332.6 -21.08 L 332.6 -26.84 Q 332.6 -27.72 333.16 -28.28 Q 333.72 -28.84 334.6 -28.84 L 334.6 -28.84 Q 335.48 -28.84 336.04 -28.28 Q 336.6 -27.72 336.6 -26.84 L 336.6 -26.84 L 336.6 -21.08 L 340 -21.08 Q 340.84 -21.08 341.36 -20.6 Q 341.88 -20.12 341.88 -19.32 L 341.88 -19.32 Q 341.88 -18.6 341.36 -18.12 Q 340.84 -17.64 340 -17.64 L 340 -17.64 L 336.6 -17.64 L 336.6 -7.76 Q 336.6 -6.16 337.48 -5.08 Q 338.36 -4 339.64 -4 L 339.64 -4 L 341 -4 Z&quot;);"/>
    <path transform="" stroke="none" d="M357.04-4Q357.76-4 358.26-3.44Q358.76-2.88 358.76-2L358.76-2Q358.76-1.12 358.10-0.56Q357.44 0 356.40 0L356.40 0L355.68 0Q353.72 0 352.10-1.02Q350.48-2.04 349.56-3.80Q348.64-5.56 348.64-7.76L348.64-7.76L348.64-17.64L346.80-17.64Q345.96-17.64 345.44-18.12Q344.92-18.60 344.92-19.32L344.92-19.32Q344.92-20.12 345.44-20.60Q345.96-21.08 346.80-21.08L346.80-21.08L348.64-21.08L348.64-26.84Q348.64-27.72 349.20-28.28Q349.76-28.84 350.64-28.84L350.64-28.84Q351.52-28.84 352.08-28.28Q352.64-27.72 352.64-26.84L352.64-26.84L352.64-21.08L356.04-21.08Q356.88-21.08 357.40-20.60Q357.92-20.12 357.92-19.32L357.92-19.32Q357.92-18.60 357.40-18.12Q356.88-17.64 356.04-17.64L356.04-17.64L352.64-17.64L352.64-7.76Q352.64-6.16 353.52-5.08Q354.40-4 355.68-4L355.68-4L357.04-4Z" style="box-sizing:border-box;height:auto;overflow-x:visible;overflow-y:visible;pointer-events:none;width:auto;perspective-origin:0px 0px;transform-origin:0px 0px;fill:rgb(75, 129, 231);d:path(&quot;M 357.04 -4 Q 357.76 -4 358.26 -3.44 Q 358.76 -2.88 358.76 -2 L 358.76 -2 Q 358.76 -1.12 358.1 -0.56 Q 357.44 0 356.4 0 L 356.4 0 L 355.68 0 Q 353.72 0 352.1 -1.02 Q 350.48 -2.04 349.56 -3.8 Q 348.64 -5.56 348.64 -7.76 L 348.64 -7.76 L 348.64 -17.64 L 346.8 -17.64 Q 345.96 -17.64 345.44 -18.12 Q 344.92 -18.6 344.92 -19.32 L 344.92 -19.32 Q 344.92 -20.12 345.44 -20.6 Q 345.96 -21.08 346.8 -21.08 L 346.8 -21.08 L 348.64 -21.08 L 348.64 -26.84 Q 348.64 -27.72 349.2 -28.28 Q 349.76 -28.84 350.64 -28.84 L 350.64 -28.84 Q 351.52 -28.84 352.08 -28.28 Q 352.64 -27.72 352.64 -26.84 L 352.64 -26.84 L 352.64 -21.08 L 356.04 -21.08 Q 356.88 -21.08 357.4 -20.6 Q 357.92 -20.12 357.92 -19.32 L 357.92 -19.32 Q 357.92 -18.6 357.4 -18.12 Q 356.88 -17.64 356.04 -17.64 L 356.04 -17.64 L 352.64 -17.64 L 352.64 -7.76 Q 352.64 -6.16 353.52 -5.08 Q 354.4 -4 355.68 -4 L 355.68 -4 L 357.04 -4 Z&quot;);"/>
    <path transform="" stroke="none" d="M383.40-11.28Q383.40-10.52 382.88-10.02Q382.36-9.52 381.56-9.52L381.56-9.52L366.36-9.52Q366.80-6.72 368.90-5Q371-3.28 374.04-3.28L374.04-3.28Q375.24-3.28 376.54-3.72Q377.84-4.16 378.68-4.80L378.68-4.80Q379.24-5.24 380-5.24L380-5.24Q380.76-5.24 381.20-4.84L381.20-4.84Q381.92-4.24 381.92-3.48L381.92-3.48Q381.92-2.76 381.28-2.28L381.28-2.28Q379.92-1.20 377.90-0.52Q375.88 0.16 374.04 0.16L374.04 0.16Q370.76 0.16 368.16-1.26Q365.56-2.68 364.10-5.20Q362.64-7.72 362.64-10.92L362.64-10.92Q362.64-14.12 364.02-16.66Q365.40-19.20 367.86-20.62Q370.32-22.04 373.44-22.04L373.44-22.04Q376.52-22.04 378.76-20.68Q381-19.32 382.20-16.88Q383.40-14.44 383.40-11.28L383.40-11.28ZM373.44-18.60Q370.52-18.60 368.70-17Q366.88-15.40 366.40-12.72L366.40-12.72L379.72-12.72Q379.36-15.40 377.72-17Q376.08-18.60 373.44-18.60L373.44-18.60Z" style="box-sizing:border-box;height:auto;overflow-x:visible;overflow-y:visible;pointer-events:none;width:auto;perspective-origin:0px 0px;transform-origin:0px 0px;fill:rgb(75, 129, 231);d:path(&quot;M 383.4 -11.28 Q 383.4 -10.52 382.88 -10.02 Q 382.36 -9.52 381.56 -9.52 L 381.56 -9.52 L 366.36 -9.52 Q 366.8 -6.72 368.9 -5 Q 371 -3.28 374.04 -3.28 L 374.04 -3.28 Q 375.24 -3.28 376.54 -3.72 Q 377.84 -4.16 378.68 -4.8 L 378.68 -4.8 Q 379.24 -5.24 380 -5.24 L 380 -5.24 Q 380.76 -5.24 381.2 -4.84 L 381.2 -4.84 Q 381.92 -4.24 381.92 -3.48 L 381.92 -3.48 Q 381.92 -2.76 381.28 -2.28 L 381.28 -2.28 Q 379.92 -1.2 377.9 -0.52 Q 375.88 0.16 374.04 0.16 L 374.04 0.16 Q 370.76 0.16 368.16 -1.26 Q 365.56 -2.68 364.1 -5.2 Q 362.64 -7.72 362.64 -10.92 L 362.64 -10.92 Q 362.64 -14.12 364.02 -16.66 Q 365.4 -19.2 367.86 -20.62 Q 370.32 -22.04 373.44 -22.04 L 373.44 -22.04 Q 376.52 -22.04 378.76 -20.68 Q 381 -19.32 382.2 -16.88 Q 383.4 -14.44 383.4 -11.28 L 383.4 -11.28 Z M 373.44 -18.6 Q 370.52 -18.6 368.7 -17 Q 366.88 -15.4 366.4 -12.72 L 366.4 -12.72 L 379.72 -12.72 Q 379.36 -15.4 377.72 -17 Q 376.08 -18.6 373.44 -18.6 L 373.44 -18.6 Z&quot;);"/>
    <path transform="" stroke="none" d="M399.32-22.12Q401.44-22.12 402.64-21.48Q403.84-20.84 403.84-19.88L403.84-19.88Q403.84-19.60 403.80-19.48L403.80-19.48Q403.44-18.20 402.20-18.20L402.20-18.20Q402-18.20 401.60-18.28L401.60-18.28Q400-18.56 399-18.56L399-18.56Q396.12-18.56 394.36-17.24Q392.60-15.92 392.60-13.68L392.60-13.68L392.60-2Q392.60-1.04 392.10-0.52Q391.60 0 390.60 0L390.60 0Q389.64 0 389.12-0.50Q388.60-1 388.60-2L388.60-2L388.60-19.88Q388.60-20.84 389.12-21.36Q389.64-21.88 390.60-21.88L390.60-21.88Q392.60-21.88 392.60-19.88L392.60-19.88L392.60-19.12Q393.80-20.52 395.56-21.32Q397.32-22.12 399.32-22.12L399.32-22.12Z" style="box-sizing:border-box;height:auto;overflow-x:visible;overflow-y:visible;pointer-events:none;width:auto;perspective-origin:0px 0px;transform-origin:0px 0px;fill:rgb(75, 129, 231);d:path(&quot;M 399.32 -22.12 Q 401.44 -22.12 402.64 -21.48 Q 403.84 -20.84 403.84 -19.88 L 403.84 -19.88 Q 403.84 -19.6 403.8 -19.48 L 403.8 -19.48 Q 403.44 -18.2 402.2 -18.2 L 402.2 -18.2 Q 402 -18.2 401.6 -18.28 L 401.6 -18.28 Q 400 -18.56 399 -18.56 L 399 -18.56 Q 396.12 -18.56 394.36 -17.24 Q 392.6 -15.92 392.6 -13.68 L 392.6 -13.68 L 392.6 -2 Q 392.6 -1.04 392.1 -0.52 Q 391.6 0 390.6 0 L 390.6 0 Q 389.64 0 389.12 -0.5 Q 388.6 -1 388.6 -2 L 388.6 -2 L 388.6 -19.88 Q 388.6 -20.84 389.12 -21.36 Q 389.64 -21.88 390.6 -21.88 L 390.6 -21.88 Q 392.6 -21.88 392.6 -19.88 L 392.6 -19.88 L 392.6 -19.12 Q 393.8 -20.52 395.56 -21.32 Q 397.32 -22.12 399.32 -22.12 L 399.32 -22.12 Z&quot;);"/>
    </g></svg>